<svg width="19" height="20" viewBox="0 0 19 20" fill="none" xmlns="http://www.w3.org/2000/svg">
<path d="M18.5969 7.41964C18.5392 7.24983 18.4331 7.10061 18.2916 6.99043C18.1501 6.88024 17.9795 6.81389 17.8007 6.79959L12.5716 6.38408L10.3087 1.37506C10.2367 1.21373 10.1195 1.07671 9.97125 0.980522C9.82303 0.884337 9.65014 0.833105 9.47344 0.833008C9.29675 0.832911 9.12381 0.883954 8.97548 0.979976C8.82715 1.076 8.70979 1.2129 8.63755 1.37415L6.37473 6.38408L1.14558 6.79959C0.969887 6.8135 0.801925 6.87774 0.661787 6.98462C0.52165 7.0915 0.41527 7.23648 0.355374 7.40224C0.295479 7.56799 0.284605 7.74749 0.324053 7.91926C0.3635 8.09103 0.451599 8.2478 0.57781 8.37081L4.44212 12.1379L3.07544 18.0559C3.03394 18.235 3.04724 18.4225 3.11361 18.594C3.17999 18.7655 3.29637 18.913 3.44765 19.0175C3.59894 19.1221 3.77815 19.1787 3.96202 19.1801C4.1459 19.1815 4.32594 19.1276 4.47881 19.0254L9.47315 15.6958L14.4675 19.0254C14.6237 19.1291 14.808 19.1825 14.9955 19.1784C15.183 19.1743 15.3647 19.1129 15.5162 19.0024C15.6678 18.8919 15.7819 18.7377 15.8431 18.5604C15.9044 18.3832 15.9099 18.1914 15.8589 18.0109L14.1813 12.1406L18.3419 8.39649C18.6143 8.15067 18.7143 7.76727 18.5969 7.41964Z" fill="#F3CD03"/>
</svg>
